<svg width="81" height="78" viewBox="0 0 81 78" fill="none" xmlns="http://www.w3.org/2000/svg">
    <path d="M41.6336 63.7339C39.0666 63.7523 36.5213 63.2626 34.1443 62.293C31.7673 61.3233 29.6057 59.8929 27.784 58.0842C25.9622 56.2755 24.5164 54.1242 23.5298 51.7542C22.5431 49.3843 22.0352 46.8425 22.0352 44.2754C22.0352 41.7083 22.5431 39.1665 23.5298 36.7966C24.5164 34.4266 25.9622 32.2753 27.784 30.4666C29.6057 28.6579 31.7673 27.2275 34.1443 26.2579C36.5213 25.2882 39.0666 24.7985 41.6336 24.8169C41.9735 24.8302 42.2951 24.9745 42.5309 25.2197C42.7667 25.4648 42.8984 25.7918 42.8984 26.1319C42.8984 26.4721 42.7667 26.799 42.5309 27.0441C42.2951 27.2893 41.9735 27.4336 41.6336 27.4469C37.1703 27.4469 32.8898 29.22 29.7338 32.376C26.5777 35.5321 24.8047 39.8126 24.8047 44.2759C24.8047 48.7392 26.5777 53.0198 29.7338 56.1758C32.8898 59.3319 37.1703 61.1049 41.6336 61.1049C41.9714 61.121 42.29 61.2666 42.5233 61.5113C42.7567 61.7561 42.8868 62.0813 42.8868 62.4194C42.8868 62.7576 42.7567 63.0827 42.5233 63.3275C42.29 63.5722 41.9714 63.7178 41.6336 63.7339Z" fill="url(#paint0_linear_1810_5850)"/>
    <path d="M41.6337 58.3192C37.9125 58.3126 34.3457 56.8311 31.715 54.1994C29.0842 51.5677 27.6039 48.0004 27.5987 44.2792C27.5918 44.1022 27.6207 43.9256 27.6836 43.7601C27.7466 43.5945 27.8424 43.4433 27.9651 43.3157C28.0879 43.188 28.2352 43.0864 28.3982 43.0171C28.5612 42.9477 28.7365 42.9119 28.9137 42.9119C29.0908 42.9119 29.2661 42.9477 29.4291 43.0171C29.5921 43.0864 29.7394 43.188 29.8622 43.3157C29.985 43.4433 30.0807 43.5945 30.1437 43.7601C30.2067 43.9256 30.2356 44.1022 30.2287 44.2792C30.2287 47.3067 31.4313 50.2101 33.572 52.3508C35.7128 54.4916 38.6162 55.6942 41.6437 55.6942C44.6711 55.6942 47.5746 54.4916 49.7153 52.3508C51.856 50.2101 53.0587 47.3067 53.0587 44.2792C53.0502 44.1013 53.0779 43.9235 53.1401 43.7566C53.2023 43.5898 53.2978 43.4372 53.4207 43.3083C53.5436 43.1794 53.6913 43.0768 53.8551 43.0067C54.0188 42.9365 54.195 42.9004 54.3732 42.9004C54.5513 42.9004 54.7275 42.9365 54.8912 43.0067C55.055 43.0768 55.2028 43.1794 55.3257 43.3083C55.4486 43.4372 55.544 43.5898 55.6062 43.7566C55.6685 43.9235 55.6962 44.1013 55.6877 44.2792C55.6824 48.0036 54.1995 51.5738 51.5646 54.2061C48.9297 56.8384 45.3581 58.3176 41.6337 58.3192Z" fill="url(#paint1_linear_1810_5850)"/>
    <path d="M41.6386 53.0373C41.4616 53.0442 41.285 53.0153 41.1194 52.9523C40.9539 52.8893 40.8027 52.7936 40.675 52.6708C40.5474 52.548 40.4458 52.4007 40.3764 52.2377C40.3071 52.0747 40.2713 51.8994 40.2713 51.7223C40.2713 51.5451 40.3071 51.3698 40.3764 51.2068C40.4458 51.0438 40.5474 50.8965 40.675 50.7738C40.8027 50.651 40.9539 50.5552 41.1194 50.4922C41.285 50.4293 41.4616 50.4004 41.6386 50.4073C43.2653 50.4073 44.8254 49.7611 45.9756 48.6108C47.1259 47.4606 47.7721 45.9005 47.7721 44.2738C47.7721 42.6471 47.1259 41.087 45.9756 39.9367C44.8254 38.7865 43.2653 38.1403 41.6386 38.1403C41.4607 38.1488 41.2829 38.1211 41.116 38.0588C40.9491 37.9966 40.7966 37.9012 40.6677 37.7783C40.5388 37.6554 40.4362 37.5076 40.366 37.3439C40.2959 37.1801 40.2598 37.0039 40.2598 36.8258C40.2598 36.6477 40.2959 36.4714 40.366 36.3077C40.4362 36.1439 40.5388 35.9962 40.6677 35.8733C40.7966 35.7504 40.9491 35.6549 41.116 35.5927C41.2829 35.5305 41.4607 35.5028 41.6386 35.5113C43.9628 35.5113 46.1918 36.4346 47.8353 38.078C49.4788 39.7215 50.4021 41.9505 50.4021 44.2748C50.4021 46.599 49.4788 48.828 47.8353 50.4715C46.1918 52.115 43.9628 53.0383 41.6386 53.0383V53.0373Z" fill="url(#paint2_linear_1810_5850)"/>
    <path d="M18.0037 35.9225C17.8108 36.5159 17.5273 37 17.1532 37.3747C16.7715 37.747 16.3318 37.9868 15.8342 38.0943C15.3366 38.2018 14.814 38.1665 14.2662 37.9885L11.6299 37.1317C11.0821 36.9537 10.6385 36.6749 10.2992 36.2955C9.95986 35.916 9.74902 35.4647 9.66665 34.9417C9.58429 34.4186 9.63954 33.8603 9.83241 33.2669C10.0228 32.6811 10.3 32.2034 10.6641 31.8338C11.023 31.4541 11.4436 31.2081 11.926 31.0957C12.4032 30.9732 12.9043 30.9972 13.4293 31.1678C13.4978 31.1901 13.5248 31.2493 13.5103 31.3456L13.1563 32.7068L13.1488 32.7296C13.1241 32.8057 13.0699 32.8302 12.9862 32.803C12.583 32.6719 12.2188 32.6924 11.8938 32.8643C11.5712 33.0286 11.3444 33.3124 11.2133 33.7157C11.0798 34.1265 11.094 34.497 11.2558 34.8272C11.4202 35.1498 11.704 35.3767 12.1072 35.5077L14.8576 36.4016C15.2532 36.5301 15.6123 36.5123 15.9349 36.3479C16.26 36.176 16.4893 35.8846 16.6228 35.4737C16.7539 35.0705 16.7372 34.7076 16.5729 34.385C16.411 34.0548 16.1323 33.8254 15.7366 33.6968C15.6529 33.6696 15.6259 33.6104 15.6556 33.5191L16.1466 32.2024C16.159 32.1643 16.1803 32.1376 16.2105 32.1222C16.2432 32.0992 16.2748 32.0926 16.3052 32.1025C16.8302 32.2731 17.2535 32.5495 17.5752 32.9316C17.8993 33.3061 18.0987 33.7537 18.1735 34.2743C18.2507 34.7873 18.1941 35.3367 18.0037 35.9225Z" fill="#0098E9"/>
    <path d="M16.4343 23.5847C16.4676 23.607 16.4885 23.6403 16.4973 23.6847C16.5039 23.718 16.496 23.7513 16.4737 23.7845L14.2815 27.0535C14.2592 27.0867 14.2647 27.1144 14.2979 27.1367L15.8427 28.1727C15.8759 28.195 15.9037 28.1895 15.926 28.1563L17.3629 26.0135C17.3852 25.9803 17.4163 25.9626 17.4563 25.9605C17.494 25.9473 17.5295 25.9518 17.5627 25.9741L18.5295 26.6224C18.5627 26.6447 18.5837 26.678 18.5925 26.7224C18.599 26.7557 18.5912 26.789 18.5689 26.8222L17.1319 28.965C17.1096 28.9982 17.1151 29.0259 17.1483 29.0482L18.7629 30.131C18.7961 30.1532 18.8239 30.1478 18.8461 30.1146L21.0384 26.8456C21.0606 26.8123 21.0917 26.7947 21.1317 26.7926C21.1694 26.7794 21.2049 26.7839 21.2382 26.8062L22.2049 27.4545C22.2381 27.4768 22.2591 27.5101 22.2679 27.5545C22.2744 27.5878 22.2666 27.6211 22.2443 27.6543L19.1565 32.2588C19.1342 32.292 19.1042 32.3152 19.0664 32.3284C19.0265 32.3305 18.9899 32.3204 18.9567 32.2982L12.2194 27.7801C12.1862 27.7578 12.1663 27.73 12.1597 27.6967C12.1509 27.6523 12.1577 27.6135 12.18 27.5803L15.2678 22.9758C15.2901 22.9425 15.3212 22.9249 15.3611 22.9228C15.3989 22.9096 15.4344 22.9141 15.4676 22.9364L16.4343 23.5847Z" fill="#0098E9"/>
    <path d="M26.3348 23.8663C26.2739 23.9181 26.2079 23.9269 26.1369 23.8928L22.8417 22.3305C22.8088 22.3165 22.7801 22.3198 22.7557 22.3405L21.9052 23.063C21.8747 23.0889 21.8724 23.1171 21.8983 23.1476L24.0192 25.6444C24.0451 25.6749 24.0562 25.7127 24.0525 25.7578C24.0498 25.7916 24.0332 25.8215 24.0027 25.8474L22.9326 26.7563C22.9021 26.7822 22.8669 26.7964 22.827 26.7988C22.788 26.79 22.7555 26.7703 22.7296 26.7398L17.4779 20.5573C17.452 20.5268 17.4404 20.4947 17.4432 20.4608C17.4468 20.4157 17.4639 20.3802 17.4944 20.3543L20.1101 18.1324C20.5003 17.8009 20.9091 17.5902 21.3364 17.5001C21.7698 17.4048 22.1901 17.4362 22.5972 17.5942C23.0104 17.747 23.3802 18.0155 23.7065 18.3996C24.0587 18.8142 24.258 19.259 24.3045 19.7338C24.3458 20.2026 24.2323 20.6559 23.9639 21.0938C23.9438 21.1319 23.9528 21.161 23.9909 21.1811L27.4333 22.7128C27.4662 22.7268 27.4879 22.7399 27.4982 22.7521C27.5396 22.8009 27.5268 22.8538 27.4598 22.9107L26.3348 23.8663ZM19.66 20.4199C19.6295 20.4458 19.6272 20.474 19.6531 20.5045L20.9816 22.0684C21.0075 22.0989 21.0356 22.1012 21.0661 22.0753L22.2642 21.0576C22.5203 20.84 22.6629 20.5877 22.6919 20.3006C22.7271 20.0084 22.641 19.7403 22.4339 19.4964C22.2267 19.2525 21.9761 19.1243 21.682 19.1117C21.3888 19.0878 21.1141 19.1847 20.8581 19.4022L19.66 20.4199Z" fill="#0098E9"/>
    <path d="M29.6405 12.4799C29.6766 12.4626 29.7124 12.4633 29.7478 12.4818C29.787 12.4897 29.8153 12.5116 29.8325 12.5477L30.3397 13.6088C30.3569 13.6448 30.358 13.6842 30.3429 13.7269C30.3316 13.7589 30.3079 13.7835 30.2718 13.8008L28.3338 14.7271C28.2977 14.7443 28.2883 14.771 28.3055 14.8071L31.2086 20.881C31.2258 20.9171 31.2269 20.9564 31.2118 20.9991C31.2005 21.0311 31.1768 21.0557 31.1407 21.073L29.874 21.6784C29.8379 21.6957 29.8003 21.7004 29.761 21.6925C29.7256 21.674 29.6992 21.6467 29.682 21.6106L26.7789 15.5367C26.7617 15.5006 26.735 15.4912 26.6989 15.5084L24.8151 16.4088C24.779 16.4261 24.7413 16.4308 24.7021 16.4229C24.6666 16.4044 24.6403 16.3771 24.623 16.341L24.1159 15.28C24.0987 15.2439 24.0957 15.2098 24.107 15.1778C24.1221 15.1352 24.1477 15.1052 24.1837 15.088L29.6405 12.4799Z" fill="#0098E9"/>
    <path d="M33.7196 20.0902C33.6809 20.1004 33.643 20.098 33.606 20.0829C33.5746 20.0581 33.5538 20.0264 33.5436 19.9877L31.4737 12.1442C31.4635 12.1055 31.4669 12.0715 31.484 12.0422C31.5068 12.0031 31.5375 11.9784 31.5762 11.9682L32.9337 11.61C32.9724 11.5998 33.0074 11.6071 33.0388 11.6319C33.0758 11.6469 33.0995 11.6738 33.1097 11.7125L35.1796 19.5559C35.1898 19.5946 35.1835 19.6335 35.1607 19.6726C35.1437 19.7019 35.1158 19.7217 35.0771 19.7319L33.7196 20.0902Z" fill="#0098E9"/>
    <path d="M41.8655 11.8052C41.8682 11.8451 41.8546 11.8821 41.8248 11.9161C41.8024 11.9416 41.7713 11.9557 41.7314 11.9584L37.816 12.2182C37.7761 12.2209 37.7575 12.2422 37.7601 12.2821L37.8833 14.138C37.8859 14.1779 37.9072 14.1965 37.9471 14.1939L40.5215 14.023C40.5614 14.0204 40.5944 14.0342 40.6204 14.0646C40.6539 14.0864 40.672 14.1173 40.6747 14.1572L40.7518 15.3186C40.7544 15.3585 40.7408 15.3955 40.711 15.4296C40.6887 15.4551 40.6575 15.4692 40.6176 15.4719L38.0433 15.6427C38.0034 15.6453 37.9847 15.6666 37.9874 15.7065L38.2067 19.0113C38.2093 19.0512 38.1958 19.0882 38.1659 19.1222C38.1436 19.1477 38.1124 19.1618 38.0725 19.1645L36.6716 19.2575C36.6317 19.2601 36.595 19.2505 36.5615 19.2287C36.5354 19.1983 36.521 19.1632 36.5184 19.1233L35.9812 11.0291C35.9786 10.9892 35.9884 10.9565 36.0108 10.9309C36.0406 10.8969 36.0755 10.8785 36.1154 10.8759L41.6352 10.5096C41.6752 10.5069 41.7082 10.5208 41.7342 10.5511C41.7677 10.5729 41.7858 10.6038 41.7885 10.6437L41.8655 11.8052Z" fill="#0098E9"/>
    <path d="M42.7095 19.0837C42.6698 19.0787 42.6356 19.0623 42.6069 19.0345C42.587 18.9997 42.5796 18.9625 42.5846 18.9228L43.5989 10.8745C43.6039 10.8348 43.6198 10.8046 43.6467 10.7838C43.6824 10.756 43.7201 10.7446 43.7598 10.7496L45.1528 10.9252C45.1925 10.9302 45.2222 10.9501 45.242 10.9848C45.2708 11.0126 45.2827 11.0464 45.2777 11.0861L44.2634 19.1344C44.2584 19.1741 44.238 19.2078 44.2022 19.2356C44.1754 19.2564 44.1422 19.2643 44.1025 19.2593L42.7095 19.0837Z" fill="#0098E9"/>
    <path d="M53.5006 14.5144C53.4875 14.5522 53.4606 14.581 53.4199 14.6007C53.3894 14.6156 53.3552 14.6164 53.3174 14.6033L49.5982 13.3152C49.5604 13.3021 49.5349 13.3145 49.5218 13.3523L48.9131 15.1099C48.9 15.1477 48.9124 15.1731 48.9502 15.1862L51.3881 16.0305C51.4259 16.0436 51.4509 16.0692 51.4631 16.1073C51.4855 16.1405 51.4902 16.1759 51.4771 16.2137L51.0961 17.3136C51.083 17.3514 51.0561 17.3802 51.0154 17.4C50.9849 17.4148 50.9507 17.4157 50.9129 17.4026L48.475 16.5583C48.4372 16.5452 48.4118 16.5575 48.3987 16.5953L47.7625 18.4323C47.7494 18.4701 47.7617 18.4955 47.7995 18.5086L51.5188 19.7967C51.5566 19.8098 51.5816 19.8354 51.5938 19.8735C51.6162 19.9066 51.6208 19.9421 51.6077 19.9799L51.2268 21.0798C51.2137 21.1176 51.1868 21.1464 51.1461 21.1661C51.1156 21.181 51.0814 21.1818 51.0436 21.1687L45.8049 19.3544C45.7671 19.3413 45.737 19.3182 45.7146 19.285C45.7024 19.2469 45.7029 19.209 45.7159 19.1712L48.3707 11.5059C48.3838 11.4681 48.4056 11.4418 48.4361 11.427C48.4769 11.4072 48.5161 11.4039 48.5539 11.417L53.7926 13.2313C53.8304 13.2444 53.8554 13.27 53.8676 13.3081C53.89 13.3412 53.8947 13.3767 53.8816 13.4145L53.5006 14.5144Z" fill="#0098E9"/>
    <path d="M52.0651 21.5916C52.0323 21.5687 52.0097 21.5382 51.9972 21.5002C51.9958 21.4603 52.0066 21.4239 52.0294 21.3911L56.6723 14.7391C56.6952 14.7063 56.7233 14.6869 56.7567 14.681C56.8013 14.6731 56.84 14.6805 56.8728 14.7034L59.3328 16.4204C59.8248 16.7639 60.1927 17.1523 60.4364 17.5858C60.6913 18.0174 60.8106 18.4616 60.7941 18.9184C60.7777 19.3752 60.6253 19.8103 60.3368 20.2236L58.4412 22.9395C58.1528 23.3528 57.797 23.6459 57.3738 23.8188C56.9507 23.9918 56.4904 24.0363 55.9928 23.9525C55.5064 23.8666 55.0172 23.652 54.5252 23.3086L52.0651 21.5916ZM54.1999 21.2377C54.177 21.2705 54.1819 21.2983 54.2147 21.3212L55.4054 22.1523C55.7072 22.3629 56.0209 22.4306 56.3465 22.3555C56.6787 22.2849 56.9671 22.0813 57.2117 21.7448L58.7914 19.4815C59.0295 19.1404 59.1244 18.8018 59.0761 18.4656C59.0343 18.134 58.856 17.8584 58.5411 17.6386L57.3603 16.8144C57.3275 16.7915 57.2997 16.7965 57.2768 16.8293L54.1999 21.2377Z" fill="#0098E9"/>
    <path d="M65.5149 28.8795C65.4684 28.8527 65.4484 28.8659 65.4549 28.9192C65.547 29.7694 65.2128 30.446 64.452 30.949C63.8047 31.377 63.1686 31.4811 62.5438 31.2612C61.9256 31.037 61.3804 30.5679 60.9083 29.8539L59.1941 27.2613C59.172 27.228 59.1622 27.1913 59.1646 27.1514C59.178 27.1137 59.2014 27.0839 59.2348 27.0618L66.0014 22.5877C66.0348 22.5656 66.0681 22.558 66.1013 22.5648C66.1457 22.5738 66.1789 22.595 66.2009 22.6284L67.8622 25.1408C68.9079 26.7224 68.7901 27.9367 67.5089 28.7839C66.8416 29.2251 66.1769 29.257 65.5149 28.8795ZM65.8766 24.7705C65.8546 24.7372 65.8268 24.7315 65.7935 24.7536L64.232 25.7861C64.1986 25.8081 64.1929 25.8358 64.215 25.8692L64.9894 27.0403C65.1967 27.354 65.4312 27.549 65.6927 27.6254C65.9543 27.7019 66.2118 27.6563 66.4654 27.4886C66.7257 27.3165 66.8718 27.0952 66.9039 26.8246C66.9427 26.5496 66.8584 26.2553 66.651 25.9417L65.8766 24.7705ZM62.1295 29.0464C62.3324 29.3534 62.568 29.5429 62.8362 29.6149C63.1111 29.6825 63.3853 29.6258 63.6589 29.4449C63.9325 29.264 64.0887 29.0361 64.1275 28.7611C64.1729 28.4817 64.092 28.1852 63.8846 27.8715L63.0639 26.6303C63.0418 26.597 63.0141 26.5913 62.9807 26.6134L61.3191 27.712C61.2858 27.7341 61.2801 27.7618 61.3022 27.7952L62.1295 29.0464Z" fill="#0098E9"/>
    <path d="M63.4793 34.9588C63.4666 34.9209 63.4665 34.883 63.479 34.845C63.5017 34.812 63.532 34.7892 63.5699 34.7764L66.4472 33.8078C66.4776 33.7976 66.499 33.7862 66.5116 33.7735L70.4314 29.8457C70.4566 29.8203 70.4768 29.8051 70.492 29.8C70.5526 29.7796 70.597 29.8111 70.625 29.8945L71.1074 31.3274C71.1329 31.4033 71.1167 31.4678 71.0587 31.5211L68.512 33.9611C68.4742 33.9991 68.4818 34.0219 68.535 34.0293L72.0387 34.4326C72.1172 34.4399 72.1692 34.4815 72.1947 34.5573L72.6847 36.0131C72.7026 36.0662 72.6989 36.1054 72.6737 36.1308C72.6586 36.1612 72.6207 36.1739 72.56 36.169L67.0553 35.3884C67.0375 35.3859 67.0135 35.3898 66.9832 35.4L64.1058 36.3686C64.0679 36.3814 64.0287 36.3777 63.9882 36.3576C63.9578 36.3425 63.9362 36.316 63.9234 36.2781L63.4793 34.9588Z" fill="#0098E9"/>
    <defs>
        <linearGradient id="paint0_linear_1810_5850" x1="22.0352" y1="24.8164" x2="42.9401" y2="24.8164" gradientUnits="userSpaceOnUse">
            <stop stop-color="#0098E9"/>
            <stop offset="1" stop-color="#004F8F"/>
        </linearGradient>
        <linearGradient id="paint1_linear_1810_5850" x1="27.5977" y1="50.6406" x2="55.6892" y2="50.6406" gradientUnits="userSpaceOnUse">
            <stop stop-color="#0098E9"/>
            <stop offset="1" stop-color="#004F8F"/>
        </linearGradient>
        <linearGradient id="paint2_linear_1810_5850" x1="40.3105" y1="35.5098" x2="50.4021" y2="35.5098" gradientUnits="userSpaceOnUse">
            <stop stop-color="#0098E9"/>
            <stop offset="1" stop-color="#004F8F"/>
        </linearGradient>
    </defs>
</svg>
