<svg width="92" height="27" viewBox="0 0 92 27" fill="none" xmlns="http://www.w3.org/2000/svg">
    <g clip-path="url(#clip0_1810_2609)">
        <path d="M32.5109 9.29126C32.0942 9.28633 31.6963 9.11869 31.4036 8.82475C31.1108 8.5308 30.9469 8.13427 30.9473 7.72122C30.9475 7.31009 31.1122 6.91583 31.4054 6.62498C31.6985 6.33413 32.0961 6.17047 32.5109 6.16992C32.9278 6.16953 33.3281 6.33225 33.6247 6.62273C33.9213 6.91321 34.0902 7.30797 34.0948 7.72122C34.0906 8.13633 33.9224 8.53327 33.6263 8.82681C33.3301 9.12035 32.9297 9.2871 32.5109 9.29126ZM34.4154 20.8775C32.3289 20.8775 31.1908 19.7043 31.1908 17.5383V10.2854H31.9496C33.152 10.2854 33.8751 10.9216 33.8751 12.2738V17.2823C33.8751 18.3549 34.3356 18.692 35.5185 18.692H36.0203V19.2713C36.0196 20.4216 35.5591 20.8788 34.4154 20.8788V20.8775Z" fill="#191919"/>
        <path d="M46.3265 20.7789C46.0791 20.8036 45.8292 20.7769 45.5929 20.7004C45.3565 20.6239 45.1389 20.4992 44.9539 20.3345C44.769 20.1698 44.6208 19.9686 44.5188 19.7438C44.4169 19.5191 44.3634 19.2756 44.3618 19.0292V14.7756C44.3618 12.9669 43.5604 12.1718 42.1808 12.1718C41.0169 12.1718 40.2162 13.046 40.2162 14.5765V20.7803H39.414C39.1718 20.799 38.9283 20.7675 38.699 20.6878C38.4697 20.6081 38.2596 20.4819 38.0823 20.3173C37.9049 20.1527 37.764 19.9533 37.6687 19.7317C37.5733 19.5102 37.5256 19.2714 37.5284 19.0306V14.3975C37.5284 12.1309 39.0326 9.80671 42.4013 9.80671C43.0297 9.78031 43.6566 9.88554 44.2411 10.1155C44.8256 10.3455 45.3547 10.6951 45.7937 11.1415C46.2327 11.5878 46.5719 12.121 46.789 12.706C47.0061 13.2911 47.0963 13.915 47.0537 14.5369V20.781L46.3265 20.7789Z" fill="#191919"/>
        <path d="M54.9469 20.8389H53.4631C50.8972 20.8389 49.6338 19.7289 49.6338 17.5996V7.72224C50.8112 7.36083 52.0313 7.15349 53.2629 7.10547H54.9273C57.5541 7.10547 59.4187 8.47708 59.4187 10.7027C59.4543 11.3605 59.2553 12.0096 58.8566 12.5366C58.4578 13.0635 57.8848 13.4345 57.2378 13.5847C57.8991 13.7806 58.4849 14.1705 58.9181 14.7031C59.3513 15.2357 59.6115 15.8859 59.6644 16.568C59.6602 19.3091 57.4547 20.8389 54.9469 20.8389ZM54.5459 9.37067H53.5233C53.126 9.38996 52.7305 9.43632 52.3397 9.50943V12.5905H54.445C55.6685 12.5905 56.6708 12.1132 56.6708 10.9407C56.6722 9.74879 55.5691 9.37067 54.5465 9.37067H54.5459ZM54.5459 14.6976H52.3649V17.4997C52.3649 17.9771 52.8863 18.3545 53.568 18.3545H54.688C56.1718 18.3545 56.8941 17.6787 56.8941 16.6457C56.8934 15.1749 56.1515 14.6982 54.5465 14.6982L54.5459 14.6976Z" fill="url(#paint0_linear_1810_2609)"/>
        <path d="M63.4494 9.29126C63.0327 9.28633 62.6348 9.11869 62.3421 8.82475C62.0493 8.5308 61.8853 8.13427 61.8857 7.72122C61.8859 7.31009 62.0507 6.91583 62.3439 6.62498C62.637 6.33413 63.0346 6.17047 63.4494 6.16992C63.8663 6.16971 64.2666 6.33247 64.5632 6.62289C64.8599 6.91331 65.0291 7.30796 65.034 7.72122C65.0297 8.1364 64.8613 8.53333 64.565 8.82686C64.2688 9.12038 63.8682 9.2871 63.4494 9.29126ZM65.3546 20.8775C63.2681 20.8775 62.13 19.7043 62.13 17.5383V10.2854H62.8888C64.0919 10.2854 64.8136 10.9216 64.8136 12.2738V17.2823C64.8136 18.3549 65.2755 18.692 66.4577 18.692H66.9595V19.2713C66.9595 20.4216 66.4975 20.8788 65.3546 20.8788V20.8775Z" fill="url(#paint1_linear_1810_2609)"/>
        <path d="M71.9921 20.879C69.767 20.879 68.5625 19.7058 68.5625 17.5399V6.46844H69.3212C69.5714 6.43478 69.8259 6.45676 70.0665 6.53279C70.307 6.60882 70.5274 6.73699 70.7117 6.90799C70.896 7.07899 71.0396 7.28853 71.132 7.52139C71.2244 7.75426 71.2634 8.0046 71.246 8.25425V17.279C71.246 18.3516 71.8059 18.6888 73.0707 18.6888H73.7923V19.2708C73.7951 20.4211 73.1743 20.879 71.9921 20.879Z" fill="url(#paint2_linear_1810_2609)"/>
        <path d="M78.5273 20.879C76.3015 20.879 75.0977 19.7058 75.0977 17.5399V6.46844H75.8543C76.1044 6.43478 76.359 6.45676 76.5995 6.53279C76.84 6.60882 77.0605 6.73699 77.2448 6.90799C77.4291 7.07899 77.5726 7.28853 77.665 7.52139C77.7575 7.75426 77.7964 8.0046 77.7791 8.25425V17.279C77.7791 18.3516 78.339 18.6888 79.6038 18.6888H80.3254V19.2708C80.3338 20.4211 79.7101 20.879 78.5273 20.879Z" fill="url(#paint3_linear_1810_2609)"/>
        <path d="M86.3882 9.80859C89.6365 9.80859 91.4976 12.3916 91.4976 15.2347C91.4976 18.4545 89.633 21.0188 86.1446 21.0188C82.8962 21.0188 81.0352 18.4518 81.0352 15.6128C81.0345 12.3916 82.8991 9.80859 86.3882 9.80859ZM86.1474 12.1931C84.6034 12.1931 83.8223 13.4648 83.8223 15.234C83.8223 17.3604 84.6034 18.6335 86.3882 18.6335C87.9518 18.6335 88.7147 17.3618 88.7147 15.6135C88.714 13.4655 87.9119 12.1931 86.1467 12.1931H86.1474Z" fill="url(#paint4_linear_1810_2609)"/>
        <path d="M14.1198 27.0003C12.3231 27.0131 10.5415 26.6734 8.87782 26.0006C7.21412 25.3279 5.70116 24.3356 4.42608 23.0807C3.15101 21.8258 2.13903 20.3333 1.44845 18.6891C0.757874 17.0448 0.402344 15.2814 0.402344 13.5003C0.402344 11.7193 0.757874 9.95588 1.44845 8.31164C2.13903 6.66741 3.15101 5.17486 4.42608 3.92C5.70116 2.66515 7.21412 1.67277 8.87782 1.00006C10.5415 0.32734 12.3231 -0.0124207 14.1198 0.000346921C14.3577 0.00954489 14.5828 0.109689 14.7478 0.279777C14.9128 0.449866 15.005 0.676687 15.005 0.912673C15.005 1.14866 14.9128 1.37548 14.7478 1.54557C14.5828 1.71566 14.3577 1.8158 14.1198 1.825C10.9958 1.825 7.99978 3.05511 5.79078 5.24473C3.58178 7.43435 2.34078 10.4041 2.34078 13.5007C2.34078 16.5973 3.58178 19.567 5.79078 21.7567C7.99978 23.9463 10.9958 25.1764 14.1198 25.1764C14.3562 25.1876 14.5792 25.2886 14.7425 25.4584C14.9058 25.6282 14.9969 25.8538 14.9969 26.0884C14.9969 26.323 14.9058 26.5486 14.7425 26.7184C14.5792 26.8882 14.3562 26.9891 14.1198 27.0003Z" fill="url(#paint5_linear_1810_2609)"/>
        <path d="M14.12 23.2442C11.5155 23.2396 9.01904 22.2118 7.17769 20.3859C5.33634 18.5601 4.3003 16.0852 4.2966 13.5035C4.29177 13.3807 4.312 13.2582 4.35607 13.1433C4.40015 13.0284 4.46717 12.9236 4.55311 12.835C4.63905 12.7464 4.74216 12.676 4.85623 12.6278C4.97031 12.5797 5.09302 12.5549 5.217 12.5549C5.34098 12.5549 5.46369 12.5797 5.57777 12.6278C5.69184 12.676 5.79494 12.7464 5.88089 12.835C5.96683 12.9236 6.03385 13.0284 6.07793 13.1433C6.122 13.2582 6.14223 13.3807 6.1374 13.5035C6.1374 15.6039 6.97916 17.6182 8.47751 19.1034C9.97586 20.5886 12.0081 21.423 14.127 21.423C16.246 21.423 18.2782 20.5886 19.7766 19.1034C21.2749 17.6182 22.1167 15.6039 22.1167 13.5035C22.1107 13.38 22.1301 13.2567 22.1737 13.1409C22.2172 13.0251 22.284 12.9193 22.3701 12.8299C22.4561 12.7405 22.5595 12.6693 22.6741 12.6206C22.7887 12.572 22.9121 12.5469 23.0367 12.5469C23.1614 12.5469 23.2848 12.572 23.3994 12.6206C23.5139 12.6693 23.6174 12.7405 23.7034 12.8299C23.7894 12.9193 23.8562 13.0251 23.8998 13.1409C23.9433 13.2567 23.9627 13.38 23.9568 13.5035C23.9531 16.0874 22.9152 18.5644 21.071 20.3906C19.2268 22.2168 16.7269 23.2431 14.12 23.2442Z" fill="url(#paint6_linear_1810_2609)"/>
        <path d="M14.1233 19.5802C13.9994 19.585 13.8758 19.565 13.7599 19.5213C13.644 19.4776 13.5382 19.4112 13.4489 19.326C13.3595 19.2408 13.2884 19.1386 13.2399 19.0255C13.1913 18.9124 13.1663 18.7908 13.1663 18.6679C13.1663 18.545 13.1913 18.4234 13.2399 18.3103C13.2884 18.1972 13.3595 18.095 13.4489 18.0098C13.5382 17.9246 13.644 17.8582 13.7599 17.8145C13.8758 17.7708 13.9994 17.7508 14.1233 17.7556C15.2618 17.7556 16.3538 17.3072 17.1589 16.5092C17.964 15.7112 18.4163 14.6288 18.4163 13.5002C18.4163 12.3717 17.964 11.2893 17.1589 10.4913C16.3538 9.69325 15.2618 9.24492 14.1233 9.24492C13.9987 9.25082 13.8743 9.2316 13.7575 9.18843C13.6407 9.14526 13.534 9.07904 13.4437 8.99378C13.3535 8.90851 13.2817 8.80597 13.2326 8.69238C13.1835 8.57879 13.1582 8.45651 13.1582 8.33294C13.1582 8.20937 13.1835 8.08709 13.2326 7.9735C13.2817 7.85991 13.3535 7.75738 13.4437 7.67211C13.534 7.58685 13.6407 7.52062 13.7575 7.47745C13.8743 7.43428 13.9987 7.41506 14.1233 7.42096C15.7501 7.42096 17.3102 8.06153 18.4605 9.20175C19.6108 10.342 20.2571 11.8884 20.2571 13.5009C20.2571 15.1135 19.6108 16.6599 18.4605 17.8001C17.3102 18.9403 15.7501 19.5809 14.1233 19.5809V19.5802Z" fill="url(#paint7_linear_1810_2609)"/>
        <path d="M32.5109 9.29126C32.0942 9.28633 31.6963 9.11869 31.4036 8.82475C31.1108 8.5308 30.9469 8.13427 30.9473 7.72122C30.9475 7.31009 31.1122 6.91583 31.4054 6.62498C31.6985 6.33413 32.0961 6.17047 32.5109 6.16992C32.9278 6.16953 33.3281 6.33225 33.6247 6.62273C33.9213 6.91321 34.0902 7.30797 34.0948 7.72122C34.0906 8.13633 33.9224 8.53327 33.6263 8.82681C33.3301 9.12035 32.9297 9.2871 32.5109 9.29126Z" fill="url(#paint8_linear_1810_2609)"/>
        <path d="M63.4494 9.29126C63.0327 9.28633 62.6348 9.11869 62.3421 8.82475C62.0493 8.5308 61.8853 8.13427 61.8857 7.72122C61.8859 7.31009 62.0507 6.91583 62.3439 6.62498C62.637 6.33413 63.0346 6.17047 63.4494 6.16992C63.8663 6.16971 64.2666 6.33247 64.5632 6.62289C64.8599 6.91331 65.0291 7.30796 65.034 7.72122C65.0297 8.1364 64.8613 8.53333 64.565 8.82686C64.2688 9.12038 63.8682 9.2871 63.4494 9.29126Z" fill="#191919"/>
    </g>
    <defs>
        <linearGradient id="paint0_linear_1810_2609" x1="49.6338" y1="13.9722" x2="59.6644" y2="13.9722" gradientUnits="userSpaceOnUse">
            <stop stop-color="#0098E9"/>
            <stop offset="1" stop-color="#004F8F"/>
        </linearGradient>
        <linearGradient id="paint1_linear_1810_2609" x1="61.8857" y1="6.16992" x2="66.9595" y2="6.16992" gradientUnits="userSpaceOnUse">
            <stop stop-color="#0098E9"/>
            <stop offset="1" stop-color="#004F8F"/>
        </linearGradient>
        <linearGradient id="paint2_linear_1810_2609" x1="68.5625" y1="6.45312" x2="73.7976" y2="6.45312" gradientUnits="userSpaceOnUse">
            <stop stop-color="#0098E9"/>
            <stop offset="1" stop-color="#004F8F"/>
        </linearGradient>
        <linearGradient id="paint3_linear_1810_2609" x1="75.0977" y1="6.45312" x2="80.3307" y2="6.45312" gradientUnits="userSpaceOnUse">
            <stop stop-color="#0098E9"/>
            <stop offset="1" stop-color="#004F8F"/>
        </linearGradient>
        <linearGradient id="paint4_linear_1810_2609" x1="81.0352" y1="9.80859" x2="91.4976" y2="9.80859" gradientUnits="userSpaceOnUse">
            <stop stop-color="#0098E9"/>
            <stop offset="1" stop-color="#004F8F"/>
        </linearGradient>
        <linearGradient id="paint5_linear_1810_2609" x1="0.402344" y1="0" x2="15.0342" y2="0" gradientUnits="userSpaceOnUse">
            <stop stop-color="#0098E9"/>
            <stop offset="1" stop-color="#004F8F"/>
        </linearGradient>
        <linearGradient id="paint6_linear_1810_2609" x1="4.2959" y1="17.9169" x2="23.9578" y2="17.9169" gradientUnits="userSpaceOnUse">
            <stop stop-color="#0098E9"/>
            <stop offset="1" stop-color="#004F8F"/>
        </linearGradient>
        <linearGradient id="paint7_linear_1810_2609" x1="13.1937" y1="7.41992" x2="20.2571" y2="7.41992" gradientUnits="userSpaceOnUse">
            <stop stop-color="#0098E9"/>
            <stop offset="1" stop-color="#004F8F"/>
        </linearGradient>
        <linearGradient id="paint8_linear_1810_2609" x1="30.9473" y1="6.16992" x2="34.0948" y2="6.16992" gradientUnits="userSpaceOnUse">
            <stop stop-color="#0098E9"/>
            <stop offset="1" stop-color="#004F8F"/>
        </linearGradient>
        <clipPath id="clip0_1810_2609">
            <rect width="91" height="27" fill="white" transform="translate(0.5)"/>
        </clipPath>
    </defs>
</svg>
