<svg width="35" height="40" viewBox="0 0 35 40" fill="none" xmlns="http://www.w3.org/2000/svg">
    <path d="M20.4442 39.5191C17.8771 39.5375 15.3318 39.0477 12.9548 38.0781C10.5779 37.1085 8.41625 35.6781 6.59452 33.8694C4.77279 32.0607 3.32695 29.9094 2.34031 27.5394C1.35366 25.1695 0.845703 22.6277 0.845703 20.0606C0.845703 17.4934 1.35366 14.9517 2.34031 12.5817C3.32695 10.2118 4.77279 8.06046 6.59452 6.25174C8.41625 4.44302 10.5779 3.01265 12.9548 2.04301C15.3318 1.07338 17.8771 0.58366 20.4442 0.602063C20.7841 0.61532 21.1056 0.759665 21.3414 1.00483C21.5772 1.24999 21.7089 1.57692 21.7089 1.91706C21.7089 2.25721 21.5772 2.58414 21.3414 2.8293C21.1056 3.07446 20.7841 3.2188 20.4442 3.23206C15.9809 3.23206 11.7003 5.00511 8.5443 8.16116C5.38825 11.3172 3.6152 15.5977 3.6152 20.0611C3.6152 24.5244 5.38825 28.8049 8.5443 31.961C11.7003 35.117 15.9809 36.8901 20.4442 36.8901C20.782 36.9062 21.1006 37.0517 21.3339 37.2965C21.5672 37.5412 21.6974 37.8664 21.6974 38.2046C21.6974 38.5427 21.5672 38.8679 21.3339 39.1126C21.1006 39.3574 20.782 39.5029 20.4442 39.5191Z" fill="black"/>
    <path d="M20.4442 34.1044C16.7231 34.0978 13.1563 32.6163 10.5255 29.9845C7.89471 27.3528 6.41449 23.7855 6.4092 20.0644C6.4023 19.8874 6.4312 19.7108 6.49418 19.5452C6.55715 19.3797 6.6529 19.2285 6.77569 19.1008C6.89848 18.9732 7.04578 18.8716 7.20877 18.8022C7.37175 18.7328 7.54706 18.6971 7.7242 18.6971C7.90134 18.6971 8.07665 18.7328 8.23964 18.8022C8.40263 18.8716 8.54993 18.9732 8.67272 19.1008C8.79551 19.2285 8.89126 19.3797 8.95423 19.5452C9.01721 19.7108 9.04611 19.8874 9.0392 20.0644C9.0392 23.0918 10.2419 25.9953 12.3826 28.136C14.5233 30.2767 17.4268 31.4794 20.4542 31.4794C23.4816 31.4794 26.3851 30.2767 28.5258 28.136C30.6666 25.9953 31.8692 23.0918 31.8692 20.0644C31.8607 19.8865 31.8884 19.7087 31.9506 19.5418C32.0128 19.3749 32.1083 19.2224 32.2312 19.0935C32.3541 18.9646 32.5019 18.8619 32.6656 18.7918C32.8293 18.7217 33.0056 18.6855 33.1837 18.6855C33.3618 18.6855 33.5381 18.7217 33.7018 18.7918C33.8655 18.8619 34.0133 18.9646 34.1362 19.0935C34.2591 19.2224 34.3546 19.3749 34.4168 19.5418C34.479 19.7087 34.5067 19.8865 34.4982 20.0644C34.4929 23.7888 33.0101 27.359 30.3752 29.9912C27.7403 32.6235 24.1686 34.1028 20.4442 34.1044Z" fill="black"/>
    <path d="M20.4491 28.8224C20.2721 28.8293 20.0956 28.8004 19.93 28.7375C19.7644 28.6745 19.6133 28.5787 19.4856 28.4559C19.3579 28.3331 19.2564 28.1858 19.187 28.0229C19.1176 27.8599 19.0818 27.6846 19.0818 27.5074C19.0818 27.3303 19.1176 27.155 19.187 26.992C19.2564 26.829 19.3579 26.6817 19.4856 26.5589C19.6133 26.4361 19.7644 26.3404 19.93 26.2774C20.0956 26.2144 20.2721 26.1855 20.4491 26.1924C22.0758 26.1924 23.6359 25.5462 24.7862 24.396C25.9364 23.2457 26.5826 21.6856 26.5826 20.0589C26.5826 18.4322 25.9364 16.8721 24.7862 15.7219C23.6359 14.5716 22.0758 13.9254 20.4491 13.9254C20.2712 13.9339 20.0934 13.9062 19.9266 13.844C19.7597 13.7818 19.6072 13.6863 19.4782 13.5634C19.3493 13.4405 19.2467 13.2927 19.1766 13.129C19.1065 12.9653 19.0703 12.789 19.0703 12.6109C19.0703 12.4328 19.1065 12.2566 19.1766 12.0928C19.2467 11.9291 19.3493 11.7813 19.4782 11.6584C19.6072 11.5355 19.7597 11.4401 19.9266 11.3778C20.0934 11.3156 20.2712 11.2879 20.4491 11.2964C22.7734 11.2964 25.0024 12.2197 26.6459 13.8632C28.2893 15.5067 29.2126 17.7357 29.2126 20.0599C29.2126 22.3842 28.2893 24.6132 26.6459 26.2566C25.0024 27.9001 22.7734 28.8234 20.4491 28.8234V28.8224Z" fill="black"/>
</svg>
